Coordinates
version=1
nRows=14
nColumns=36
inDegrees=yes

Units are S.I. units (second, meters, Newtons, ...)
If the header above contains a line with 'inDegrees', this indicates whether rotational values are in degrees (yes) or radians (no).

endheader
time	pelvis_tilt	pelvis_list	pelvis_rotation	pelvis_tx	pelvis_ty	pelvis_tz	hip_flexion_r	hip_adduction_r	hip_rotation_r	knee_angle_r	knee_angle_r_beta	ankle_angle_r	subtalar_angle_r	mtp_angle_r	hip_flexion_l	hip_adduction_l	hip_rotation_l	knee_angle_l	knee_angle_l_beta	ankle_angle_l	subtalar_angle_l	mtp_angle_l	lumbar_extension	lumbar_bending	lumbar_rotation	arm_flex_r	arm_add_r	arm_rot_r	elbow_flex_r	pro_sup_r	arm_flex_l	arm_add_l	arm_rot_l	elbow_flex_l	pro_sup_l
      0.00000000	      1.64496753	      0.94590536	     10.21326270	      1.62124160	      0.95642858	      0.07833115	     -2.70130019	      4.57548911	      3.76606162	      7.77517360	      0.13570238	     12.10958412	     -2.12663231	     -6.73635191	     27.67583386	     -3.84153493	      1.87049294	     21.22216411	      0.37039664	      3.80867308	     -6.52615105	     -6.73635191	     -1.27694390	      3.70867075	     -9.99297566	     24.56695598	    -10.51849361	     60.26957437	    127.69230636	     78.85421336	     32.16292091	     10.24879808	     65.94857817	    103.66102588	     88.70729625
      0.01666670	      2.45348283	     -0.32890419	      8.90272743	      1.62111559	      0.95228459	      0.07765607	     -2.83346264	      6.57777155	      8.32390968	      8.50992272	      0.14852617	     12.58155189	     -6.34875850	     -6.88311703	     27.22511056	     -6.17674637	      3.01618472	     18.42555792	      0.32158665	      6.10648020	     -2.73046522	     -6.88311703	     -1.13344335	      7.47612285	     -9.26798640	     31.69102332	    -12.00268568	     69.92512989	    129.20734993	     97.43645285	     35.19525354	      7.79248366	     64.16432582	    108.59198061	    103.96473482
      0.03333330	      3.04685021	      0.07875532	      6.52232713	      1.61987372	      0.95296151	      0.08085099	     -2.63573751	      6.16445964	      9.29032332	     10.24337522	      0.17878062	     13.74767019	     -6.60133645	     -6.90658973	     25.77553068	     -7.37809550	      0.56968482	     16.16390623	      0.28211338	      5.70086691	     -0.29979342	     -6.90658973	     -1.63714968	      7.93871304	     -7.66049279	     33.86165950	     -9.23148717	     69.43515118	    127.92481068	     98.13632007	     37.56953963	      6.20459420	     64.80275020	    110.34957649	    105.09898232
      0.05000000	      2.88203410	      0.68690592	      5.65825097	      1.61979195	      0.95188861	      0.08167539	     -2.04736802	      5.40337456	      9.06495679	     11.16696287	      0.19490027	     15.39041260	     -6.13113177	     -6.97554175	     25.41979592	     -7.30966163	      0.05726916	     14.91406326	      0.26029951	      6.15780709	      0.97190968	     -6.97554175	     -1.14269683	      7.92943350	     -8.09721300	     35.29293117	     -6.52459572	     70.58152554	    125.58980486	    100.33901826	     38.12125544	      4.88362855	     63.79987555	    112.14446253	    108.38274774
      0.06666670	      2.71218873	      1.18976761	      5.28173942	      1.61892862	      0.95167123	      0.08187435	     -1.34350454	      4.93243155	      8.78257567	     12.22652990	      0.21339320	     16.04571685	     -6.35242694	     -7.06635072	     25.14906373	     -7.00169109	     -0.46227356	     14.38468835	      0.25106017	      6.34361643	      2.13949428	     -7.06635072	     -0.93782973	      7.75620322	     -7.83739763	     35.35605917	     -5.27785870	     71.04700056	    124.06107004	    100.55270163	     38.82970152	      4.41579111	     63.91911764	    112.83771385	    109.29474951
      0.08333330	      2.59368237	      1.75549731	      5.26957591	      1.61817163	      0.95172820	      0.08186447	     -0.80161816	      4.39888929	      8.43627462	     13.07961636	      0.22828237	     16.33953759	     -6.49460269	     -7.19460746	     25.08803574	     -6.40667052	     -0.68321350	     14.56129043	      0.25414246	      5.93340684	      2.61636281	     -7.19460746	     -0.83336180	      7.53884149	     -8.15143872	     35.57883382	     -4.18220777	     71.80449890	    122.68650513	     99.42021688	     39.09113220	      3.82842647	     63.44113345	    113.79308837	    109.81485417
      0.10000000	      2.44927375	      2.23005566	      5.26023971	      1.61743464	      0.95158207	      0.08194702	     -0.35677734	      3.97172750	      8.36965507	     13.72194014	      0.23949304	     16.29301341	     -6.82299824	     -7.30989029	     25.16945696	     -5.88901776	     -0.91782628	     14.97196103	      0.26131002	      5.45417424	      2.95601904	     -7.30989029	     -0.72338721	      7.30702594	     -8.37518904	     35.67029207	     -3.38272601	     72.22546062	    121.69803568	     99.77563901	     39.24202321	      3.21238767	     62.97107166	    114.49782723	    109.17258469
      0.11666670	      2.33671985	      2.58714729	      5.38046634	      1.61696479	      0.95175406	      0.08197053	     -0.00570700	      3.67470908	      8.24913711	     14.19301117	      0.24771478	     16.15513840	     -7.01256809	     -7.35439906	     25.33944358	     -5.50255478	     -1.11646454	     15.47321015	      0.27005846	      4.92167784	      3.33831826	     -7.35439906	     -0.66253017	      7.18575216	     -8.78649680	     35.89282674	     -2.73377265	     72.69123816	    120.83914645	     98.72634708	     39.07186144	      2.59029706	     62.50389244	    115.08526195	    108.89926863
      0.13333330	      2.29633838	      2.86339184	      5.49119843	      1.61639460	      0.95163630	      0.08197143	      0.18905155	      3.46763462	      8.13578368	     14.52490401	      0.25350740	     15.97256117	     -7.00384501	     -7.37176917	     25.55181589	     -5.24039102	     -1.28263791	     16.01567931	      0.27952634	      4.54245534	      3.39118477	     -7.37176917	     -0.73745526	      7.01160107	     -8.96074669	     35.89932964	     -2.45991107	     72.68217715	    120.44110329	     98.39657367	     39.07391851	      2.21372559	     62.46192979	    115.45547937	    108.30703857
      0.15000000	      2.26601755	      3.02100702	      5.70224595	      1.61588780	      0.95337625	      0.08167930	      0.37487929	      3.36704914	      7.88821936	     14.71487583	      0.25682303	     15.75343597	     -6.98592272	     -7.38791502	     25.70766977	     -5.08843154	     -1.46119789	     16.39662061	      0.28617502	      4.22654485	      3.85161378	     -7.38791502	     -0.79192225	      6.97361788	     -8.98588758	     35.79282726	     -2.41411117	     72.74467868	    120.33148784	     96.07315924	     38.78387764	      1.98625988	     62.91922849	    115.80800026	    104.89924130
      0.16666670	      2.33788554	      3.10329969	      5.87669748	      1.61539744	      0.95334074	      0.08165018	      0.43007203	      3.34869495	      7.79627210	     14.86288963	      0.25940636	     15.61075260	     -6.77996351	     -7.40460575	     25.85801610	     -5.04711946	     -1.56867003	     16.82965522	      0.29373290	      3.82292457	      4.00812835	     -7.40460575	     -0.88812906	      7.08931356	     -9.42475843	     36.16957936	     -1.97951528	     73.09068746	    119.59080188	     97.20546866	     38.37508984	      1.56679234	     62.62365257	    116.35595210	    107.51047485
      0.18333330	      2.33418773	      3.10083763	      6.05406522	      1.61524829	      0.95322026	      0.08162265	      0.63480446	      3.40277379	      7.70119247	     15.12499373	      0.26398094	     15.61867164	     -6.61778904	     -7.41419759	     26.06271309	     -5.07047298	     -1.68192610	     17.28350827	      0.30165413	      3.55607994	      4.27685267	     -7.41419759	     -0.94061430	      7.12466445	     -9.40962551	     36.02755075	     -1.82045048	     72.69983021	    119.26033191	     97.03198492	     38.36117128	      1.39280312	     62.88627462	    116.40627729	    107.64048488
      0.20000000	      2.58159979	      3.14515276	      6.21900978	      1.61504366	      0.95341719	      0.08157348	      0.46325837	      3.43707164	      7.76022957	     15.20176749	      0.26532089	     15.38339696	     -6.77926326	     -7.42542448	     25.95615753	     -5.12517929	     -2.01839518	     17.54874782	      0.30628343	      3.26285464	      4.64940963	     -7.42542448	     -1.23171824	      7.15094907	     -9.55836967	     36.22512553	     -1.73414644	     72.74667630	    118.95993089	     96.30170158	     38.58718331	      1.38376835	     63.09926262	    116.40656072	    106.23964914
      0.21666670	      2.56595494	      3.06665004	      6.55669058	      1.61484602	      0.95088773	      0.08113819	      0.63985575	      3.52558902	      7.27311527	     15.38125181	      0.26845349	     15.73510452	     -6.06357088	     -7.43957077	     26.29235261	     -5.20856449	     -1.84625275	     17.84601042	      0.31147164	      2.97457160	      4.38412024	     -7.43957077	     -1.19722181	      7.29218802	    -10.13623480	     36.51387257	     -1.45697181	     72.83115606	    119.14369949	     96.06768334	     38.83486247	      1.21925564	     62.84618341	    117.08078880	    106.44427289
